<svg xmlns="http://www.w3.org/2000/svg" viewBox="0 0 617.84 169.1"><title>Asset 1</title><g id="Layer_2" data-name="Layer 2"><g id="Layer_1-2" data-name="Layer 1"><path d="M340,168.64l5.71-4c-.87-3.86-1.92-6.35-7-7.62-4.24-1.06-7.47-6.12-11.57-9.78,17.45-7.15,29.09-19.34,37.22-36.36,3.47,5.25,10.13,7.21,10.46,14.59.09,1.9,2.29,3.7,3.52,5.55l1.84-1.2,5.55-10.58C390.36,131.69,354.5,170.08,340,168.64Zm38.44-35.44c-5.47-4.4-5.49-4.42-10.34.26q-9.52,9.16-19,18.4c-4.49,4.39-4.47,6.1,0,11.06C362.86,154.64,371.21,146.17,378.41,133.2Z" style="fill:#550457"/><path d="M218.47,122.35l5.46,8.58,6.84-3.84c-1.08-7.07-1-7.28,8.28-15,7.67,16.27,20,27.84,36.66,35.67-4.54,3.27-6.23,9.2-13,9.38-1.49,0-2.87,4.15-4.3,6.38l9.44,5.44C252.67,171.18,216.27,136.89,218.47,122.35ZM225.74,134c3.86,9,20.63,24.76,30.26,28.53,2.63-3.81,4-7.42-.13-11.36-5.76-5.51-11.07-11.49-16.83-17s-5.81-5.25-12.68-.88A7,7,0,0,0,225.74,134Z" style="fill:#550457"/><path d="M262.93,2.06,258,5.81c1.63,3,1.49,6.6,7,7.2,3.35.37,6.24,4.88,9.77,7.91-17.16,7.83-29,19.83-36.69,37.24-3.1-5-9.47-6.62-9.15-13.72.06-1.32-3.59-2.8-5.75-4.38l-5.58,10.79C211.71,40.07,246.58,2,262.93,2.06ZM232.38,41.91c7.11-7.54,14.05-15.12,21.23-22.45,5.42-5.51,5.56-5.37.9-12.18a78.84,78.84,0,0,0-30,30.17Z" style="fill:#550457"/><path d="M384.11,47.1l-4.25-6.43c-3.26,1.17-5.7,2.1-6.51,6.87-.65,3.83-4.88,7.06-8.14,11.38-7.78-17.67-19.58-29.95-37.82-38.3,5.22-3.08,9.59-5.33,13.55-8.15,1.69-1.19,2.53-3.57,4-5.71l-9.1-4.93L336.71,0c8.57,2,16,6.73,22.94,12.08,11.72,9,20.9,20,26.16,33.8ZM346.69,7.36c-.34,3.3-1.81,7-.67,8.19,8.39,8.64,17.3,16.78,26.35,25.37l5.8-3.68C370.45,24.59,360.49,15.11,346.69,7.36Z" style="fill:#550457"/><path d="M66.07,49.79H30.18V69.2H64.06V94.76H30.18v20H66.07v25.57H0V24.23H66.07Z" style="fill:#550457"/><path d="M163.08,49.79H114.57V24.23H209.9L143.37,140.35H110.11Z" style="fill:#550457"/><path d="M302.3,75.36l64.24.33c0,6.16.52,10,0,15a51,51,0,0,1-3,13c-2.15,6.06-6.3,15.33-10,20a60.8,60.8,0,0,1-14,13c-5,3.14-11,7.36-17,9a87.46,87.46,0,0,1-21,3c-9,0-17.55-1-25-4s-17.66-10.61-23-16-11-15.45-14-23-3-18.86-3-28,2.08-12.45,5-20,9.61-15.66,15-21a67.44,67.44,0,0,1,21-14c7.6-3,14.66-4,24-4a67.92,67.92,0,0,1,33,9c9.14,5.24,18.66,14,24,25L327.25,65q-4-9.54-10.4-13.71a26.09,26.09,0,0,0-14.55-4.15A29.14,29.14,0,0,0,290,49.72,26.54,26.54,0,0,0,280.51,57a34.72,34.72,0,0,0-6.16,11.31,46.11,46.11,0,0,0-2.23,14.79A46.82,46.82,0,0,0,274,96.76a30.8,30.8,0,0,0,5.78,10.94,26,26,0,0,0,9.54,7.16,32.36,32.36,0,0,0,13.25,2.54,36.58,36.58,0,0,0,8.62-1,22.84,22.84,0,0,0,7.47-3.24,18.32,18.32,0,0,0,5.47-5.77,23.19,23.19,0,0,0,2.92-8.62H302.3Z" style="fill:#550457"/><path d="M474,49.79H438.13V69.2H472V94.76H438.13v20H474v25.57H407.94V24.23H474Z" style="fill:#550457"/><path d="M563.17,114.78h48.67v25.57H512.51l55-90.56H521.75V24.23h96.09Z" style="fill:#550457"/></g></g></svg>